<svg width="32" height="32" viewBox="0 0 32 32" fill="none" xmlns="http://www.w3.org/2000/svg">
<rect width="32" height="32" rx="16" fill="#052F1B"/>
<path fill-rule="evenodd" clip-rule="evenodd" d="M13.6976 10.301C13.4717 10.3489 12.3362 10.9294 12.0555 11.1404C11.658 11.4391 11.3622 11.8974 11.2445 12.3964C11.1679 12.7208 11.1923 13.2266 11.2992 13.5364L11.3731 13.7502L10.9213 13.9706C9.98791 14.4261 9.51215 15.1083 9.51075 15.9933C9.51009 16.4165 9.56096 16.6422 9.7382 17.0021C9.95357 17.4395 10.2791 17.7453 10.8593 18.0552C11.1166 18.1926 11.3315 18.3081 11.3368 18.3119C11.3423 18.3156 11.3115 18.456 11.2686 18.6237C11.0805 19.3591 11.2612 20.0904 11.7655 20.6352C12.0458 20.9379 12.17 21.0204 12.9253 21.4051C13.6456 21.7721 13.8769 21.8344 14.249 21.7619C14.5664 21.7001 14.8236 21.5535 15.0505 21.3054C15.2961 21.0367 15.4006 20.7599 15.4006 20.3781C15.4006 19.9549 15.2934 19.6978 14.9942 19.4036C14.789 19.2016 14.6142 19.0951 13.7151 18.6239C13.1423 18.3238 12.6732 18.0677 12.6728 18.0549C12.672 18.0337 15.7145 16.6147 15.9463 16.5281C16.0296 16.497 16.2778 16.5998 17.6548 17.236C18.5409 17.6454 19.2929 17.9954 19.3258 18.0139C19.3704 18.0388 19.2726 18.105 18.9426 18.2732C18.3493 18.5757 17.289 19.1719 17.1331 19.2908C16.7056 19.6169 16.5223 20.3318 16.7265 20.8775C16.9509 21.4771 17.6455 21.8798 18.2598 21.7663C18.4945 21.7229 19.4924 21.2446 19.874 20.9926C20.1453 20.8135 20.4809 20.4376 20.6223 20.1547C20.8602 19.6787 20.9189 19.0134 20.7622 18.5703C20.7291 18.4765 20.7019 18.3774 20.7019 18.3501C20.7019 18.3228 20.8642 18.2174 21.0625 18.1158C21.5764 17.8525 21.8751 17.6288 22.0874 17.3481C22.4162 16.9136 22.5334 16.5567 22.5326 15.9927C22.5313 15.1007 22.083 14.4528 21.1312 13.9676L20.6741 13.7345L20.7509 13.5091C21.0348 12.6748 20.716 11.6838 19.9875 11.1362C19.8576 11.0386 19.4637 10.8152 19.1122 10.6398L18.4731 10.321H18.0956C17.7479 10.321 17.6978 10.3311 17.4585 10.4489C16.7447 10.8003 16.4524 11.6748 16.812 12.3828C16.9962 12.7453 17.1693 12.8698 18.2856 13.4426C18.8642 13.7395 19.3376 13.994 19.3376 14.0083C19.3376 14.0225 18.5923 14.3782 17.6814 14.7988L16.0252 15.5635L14.389 14.8133C13.4891 14.4008 12.7522 14.0534 12.7513 14.0413C12.7505 14.0293 13.2174 13.7927 13.7889 13.5157C14.969 12.9434 15.126 12.8313 15.3311 12.4145C15.4499 12.1732 15.459 12.1269 15.459 11.7633C15.459 11.3999 15.4499 11.3533 15.3314 11.1126C15.0327 10.5058 14.3442 10.1638 13.6976 10.301ZM14.3993 11.2484C14.6694 11.4544 14.7261 11.8345 14.5307 12.1297C14.4491 12.253 14.2937 12.3405 13.2915 12.8269L12.1457 13.3831L12.0927 13.2554C12.0004 13.0327 12.0244 12.6057 12.1442 12.3387C12.3074 11.9751 12.5307 11.7864 13.2207 11.4292C13.7932 11.1328 13.8323 11.1186 14.0422 11.131C14.2078 11.1408 14.2964 11.1699 14.3993 11.2484ZM18.8302 11.4364C19.4953 11.7746 19.7023 11.9422 19.8891 12.2938C19.9672 12.4407 19.9802 12.5213 19.9804 12.8625C19.9806 13.0811 19.9633 13.2768 19.9418 13.2973C19.9166 13.3215 19.5129 13.1342 18.799 12.7671C17.8727 12.291 17.6799 12.1772 17.6003 12.0602C17.478 11.8802 17.471 11.5944 17.5844 11.4109C17.6724 11.2686 17.9357 11.1202 18.1004 11.1202C18.1597 11.1201 18.4881 11.2624 18.8302 11.4364ZM12.3601 14.7861C12.4565 14.8352 13.095 15.1341 13.7789 15.4505L15.0224 16.0257L14.7729 16.1392C13.1036 16.8988 12.2339 17.3208 12.05 17.4603L11.8338 17.6243L11.4097 17.403C10.8982 17.136 10.61 16.8873 10.4615 16.5849C10.3682 16.3949 10.3525 16.3155 10.3525 16.0317C10.3525 15.3885 10.6238 15.035 11.3983 14.669L11.8728 14.4447L12.0287 14.5708C12.1145 14.6402 12.2636 14.7371 12.3601 14.7861ZM20.6743 14.6748C21.2147 14.9503 21.4346 15.1429 21.5919 15.4783C21.6798 15.6659 21.6957 15.7519 21.6942 16.0317C21.6928 16.3176 21.6769 16.3943 21.5789 16.591C21.4256 16.8983 21.1638 17.122 20.6352 17.3976L20.1982 17.6254L20.0141 17.4733C19.89 17.3707 19.3849 17.1161 18.4631 16.6915C17.7113 16.3451 17.0842 16.0506 17.0695 16.037C17.0548 16.0234 17.4232 15.8381 17.8881 15.6252C19.3041 14.977 19.8964 14.6828 20.0393 14.5569C20.1143 14.4908 20.1814 14.436 20.1884 14.4351C20.1954 14.4342 20.414 14.5421 20.6743 14.6748ZM13.2194 19.3105C13.8295 19.6345 14.3683 19.936 14.417 19.9806C14.6916 20.2323 14.586 20.7573 14.2313 20.9042C14.029 20.988 13.8146 20.9263 13.1981 20.6069C12.7533 20.3763 12.5653 20.2549 12.4122 20.0991C12.1696 19.8522 12.0434 19.5511 12.0392 19.2088C12.0367 19.0099 12.0738 18.7214 12.1018 18.7214C12.1065 18.7214 12.6094 18.9865 13.2194 19.3105ZM19.9829 18.8973C20.027 19.1914 19.9864 19.5423 19.8837 19.7544C19.7187 20.095 19.4965 20.2739 18.8029 20.6247C18.1017 20.9794 17.9657 21.0087 17.7354 20.8548C17.3922 20.6255 17.3797 20.1619 17.7101 19.9184C17.9166 19.7662 19.8281 18.7284 19.9102 18.7239C19.9359 18.7225 19.9683 18.7997 19.9829 18.8973Z" fill="#C8EA89"/>
</svg>
