<svg width="178" height="38" viewBox="0 0 178 38" fill="none" xmlns="http://www.w3.org/2000/svg">
<rect y="3" width="32" height="32" rx="16" fill="#052F1B"/>
<path fill-rule="evenodd" clip-rule="evenodd" d="M13.6976 13.301C13.4717 13.3489 12.3362 13.9294 12.0555 14.1404C11.658 14.4391 11.3622 14.8974 11.2445 15.3964C11.1679 15.7208 11.1923 16.2266 11.2992 16.5364L11.3731 16.7502L10.9213 16.9706C9.98791 17.4261 9.51215 18.1083 9.51075 18.9933C9.51009 19.4165 9.56096 19.6422 9.7382 20.0021C9.95357 20.4395 10.2791 20.7453 10.8593 21.0552C11.1166 21.1926 11.3315 21.3081 11.3368 21.3119C11.3423 21.3156 11.3115 21.456 11.2686 21.6237C11.0805 22.3591 11.2612 23.0904 11.7655 23.6352C12.0458 23.9379 12.17 24.0204 12.9253 24.4051C13.6456 24.7721 13.8769 24.8344 14.249 24.7619C14.5664 24.7001 14.8236 24.5535 15.0505 24.3054C15.2961 24.0367 15.4006 23.7599 15.4006 23.3781C15.4006 22.9549 15.2934 22.6978 14.9942 22.4036C14.789 22.2016 14.6142 22.0951 13.7151 21.6239C13.1423 21.3238 12.6732 21.0677 12.6728 21.0549C12.672 21.0337 15.7145 19.6147 15.9463 19.5281C16.0296 19.497 16.2778 19.5998 17.6548 20.236C18.5409 20.6454 19.2929 20.9954 19.3258 21.0139C19.3704 21.0388 19.2726 21.105 18.9426 21.2732C18.3493 21.5757 17.289 22.1719 17.1331 22.2908C16.7056 22.6169 16.5223 23.3318 16.7265 23.8775C16.9509 24.4771 17.6455 24.8798 18.2598 24.7663C18.4945 24.7229 19.4924 24.2446 19.874 23.9926C20.1453 23.8135 20.4809 23.4376 20.6223 23.1547C20.8602 22.6787 20.9189 22.0134 20.7622 21.5703C20.7291 21.4765 20.7019 21.3774 20.7019 21.3501C20.7019 21.3228 20.8642 21.2174 21.0625 21.1158C21.5764 20.8525 21.8751 20.6288 22.0874 20.3481C22.4162 19.9136 22.5334 19.5567 22.5326 18.9927C22.5313 18.1007 22.083 17.4528 21.1312 16.9676L20.6741 16.7345L20.7509 16.5091C21.0348 15.6748 20.716 14.6838 19.9875 14.1362C19.8576 14.0386 19.4637 13.8152 19.1122 13.6398L18.4731 13.321H18.0956C17.7479 13.321 17.6978 13.3311 17.4585 13.4489C16.7447 13.8003 16.4524 14.6748 16.812 15.3828C16.9962 15.7453 17.1693 15.8698 18.2856 16.4426C18.8642 16.7395 19.3376 16.994 19.3376 17.0083C19.3376 17.0225 18.5923 17.3782 17.6814 17.7988L16.0252 18.5635L14.389 17.8133C13.4891 17.4008 12.7522 17.0534 12.7513 17.0413C12.7505 17.0293 13.2174 16.7927 13.7889 16.5157C14.969 15.9434 15.126 15.8313 15.3311 15.4145C15.4499 15.1732 15.459 15.1269 15.459 14.7633C15.459 14.3999 15.4499 14.3533 15.3314 14.1126C15.0327 13.5058 14.3442 13.1638 13.6976 13.301ZM14.3993 14.2484C14.6694 14.4544 14.7261 14.8345 14.5307 15.1297C14.4491 15.253 14.2937 15.3405 13.2915 15.8269L12.1457 16.3831L12.0927 16.2554C12.0004 16.0327 12.0244 15.6057 12.1442 15.3387C12.3074 14.9751 12.5307 14.7864 13.2207 14.4292C13.7932 14.1328 13.8323 14.1186 14.0422 14.131C14.2078 14.1408 14.2964 14.1699 14.3993 14.2484ZM18.8302 14.4364C19.4953 14.7746 19.7023 14.9422 19.8891 15.2938C19.9672 15.4407 19.9802 15.5213 19.9804 15.8625C19.9806 16.0811 19.9633 16.2768 19.9418 16.2973C19.9166 16.3215 19.5129 16.1342 18.799 15.7671C17.8727 15.291 17.6799 15.1772 17.6003 15.0602C17.478 14.8802 17.471 14.5944 17.5844 14.4109C17.6724 14.2686 17.9357 14.1202 18.1004 14.1202C18.1597 14.1201 18.4881 14.2624 18.8302 14.4364ZM12.3601 17.7861C12.4565 17.8352 13.095 18.1341 13.7789 18.4505L15.0224 19.0257L14.7729 19.1392C13.1036 19.8988 12.2339 20.3208 12.05 20.4603L11.8338 20.6243L11.4097 20.403C10.8982 20.136 10.61 19.8873 10.4615 19.5849C10.3682 19.3949 10.3525 19.3155 10.3525 19.0317C10.3525 18.3885 10.6238 18.035 11.3983 17.669L11.8728 17.4447L12.0287 17.5708C12.1145 17.6402 12.2636 17.7371 12.3601 17.7861ZM20.6743 17.6748C21.2147 17.9503 21.4346 18.1429 21.5919 18.4783C21.6798 18.6659 21.6957 18.7519 21.6942 19.0317C21.6928 19.3176 21.6769 19.3943 21.5789 19.591C21.4256 19.8983 21.1638 20.122 20.6352 20.3976L20.1982 20.6254L20.0141 20.4733C19.89 20.3707 19.3849 20.1161 18.4631 19.6915C17.7113 19.3451 17.0842 19.0506 17.0695 19.037C17.0548 19.0234 17.4232 18.8381 17.8881 18.6252C19.3041 17.977 19.8964 17.6828 20.0393 17.5569C20.1143 17.4908 20.1814 17.436 20.1884 17.4351C20.1954 17.4342 20.414 17.5421 20.6743 17.6748ZM13.2194 22.3105C13.8295 22.6345 14.3683 22.936 14.417 22.9806C14.6916 23.2323 14.586 23.7573 14.2313 23.9042C14.029 23.988 13.8146 23.9263 13.1981 23.6069C12.7533 23.3763 12.5653 23.2549 12.4122 23.0991C12.1696 22.8522 12.0434 22.5511 12.0392 22.2088C12.0367 22.0099 12.0738 21.7214 12.1018 21.7214C12.1065 21.7214 12.6094 21.9865 13.2194 22.3105ZM19.9829 21.8973C20.027 22.1914 19.9864 22.5423 19.8837 22.7544C19.7187 23.095 19.4965 23.2739 18.8029 23.6247C18.1017 23.9794 17.9657 24.0087 17.7354 23.8548C17.3922 23.6255 17.3797 23.1619 17.7101 22.9184C17.9166 22.7662 19.8281 21.7284 19.9102 21.7239C19.9359 21.7225 19.9683 21.7997 19.9829 21.8973Z" fill="#C8EA89"/>
<path d="M52.672 25.888H49.648L43.072 12.208L45.448 12.136V28H41.464V10.84H46.072L51.904 23.056H50.464L56.296 10.84H60.808V28H56.776V12.136L59.248 12.208L52.672 25.888ZM74.3196 23.968L76.2876 26.392C75.6796 27.016 74.8716 27.504 73.8636 27.856C72.8716 28.208 71.7996 28.384 70.6476 28.384C69.1596 28.384 67.8636 28.112 66.7596 27.568C65.6556 27.024 64.7916 26.264 64.1676 25.288C63.5596 24.312 63.2556 23.184 63.2556 21.904C63.2556 20.608 63.5516 19.472 64.1436 18.496C64.7356 17.504 65.5356 16.736 66.5436 16.192C67.5676 15.648 68.7036 15.376 69.9516 15.376C71.1836 15.376 72.2796 15.648 73.2396 16.192C74.1996 16.72 74.9516 17.464 75.4956 18.424C76.0396 19.368 76.3116 20.472 76.3116 21.736V21.88H72.3756V21.448C72.3756 20.824 72.2796 20.288 72.0876 19.84C71.8956 19.392 71.6156 19.048 71.2476 18.808C70.8956 18.552 70.4556 18.424 69.9276 18.424C69.4156 18.424 68.9596 18.56 68.5596 18.832C68.1756 19.088 67.8716 19.464 67.6476 19.96C67.4236 20.456 67.3116 21.072 67.3116 21.808C67.3116 22.592 67.4636 23.248 67.7676 23.776C68.0716 24.288 68.4956 24.672 69.0396 24.928C69.5836 25.184 70.2076 25.312 70.9116 25.312C72.2076 25.312 73.3436 24.864 74.3196 23.968ZM76.3116 23.056H65.6796V20.704H75.9036L76.3116 21.76V23.056ZM90.9147 28H86.8587V20.92C86.8587 20.168 86.6907 19.608 86.3547 19.24C86.0187 18.872 85.5627 18.688 84.9867 18.688C84.5867 18.688 84.2027 18.8 83.8347 19.024C83.4827 19.232 83.1947 19.56 82.9707 20.008C82.7467 20.456 82.6347 21.048 82.6347 21.784V28H78.5787V15.76H82.6107V19.624H82.1547C82.2667 18.472 82.5467 17.592 82.9947 16.984C83.4427 16.376 83.9627 15.96 84.5547 15.736C85.1627 15.496 85.7387 15.376 86.2827 15.376C87.7067 15.376 88.8347 15.816 89.6667 16.696C90.4987 17.576 90.9147 18.848 90.9147 20.512V28ZM101.332 28H98.1638C96.8998 28 95.9638 27.696 95.3558 27.088C94.7478 26.48 94.4438 25.544 94.4438 24.28V12.736H98.4998V23.488C98.4998 23.952 98.5878 24.28 98.7638 24.472C98.9398 24.648 99.2518 24.736 99.6998 24.736H101.332V28ZM101.212 18.976H92.5478V15.76H101.212V18.976ZM115.485 28H111.861V25.504L111.645 25.288V20.68C111.645 19.928 111.397 19.36 110.901 18.976C110.421 18.592 109.757 18.4 108.909 18.4C108.269 18.4 107.661 18.512 107.085 18.736C106.509 18.96 106.005 19.28 105.573 19.696L103.653 17.296C104.293 16.704 105.093 16.24 106.053 15.904C107.029 15.552 108.053 15.376 109.125 15.376C110.389 15.376 111.493 15.576 112.437 15.976C113.397 16.376 114.141 16.968 114.669 17.752C115.213 18.52 115.485 19.472 115.485 20.608V28ZM108.021 28.384C107.077 28.384 106.237 28.216 105.501 27.88C104.781 27.528 104.221 27.048 103.821 26.44C103.421 25.832 103.221 25.12 103.221 24.304C103.221 23.472 103.469 22.76 103.965 22.168C104.461 21.576 105.173 21.12 106.101 20.8C107.029 20.464 108.125 20.296 109.389 20.296H111.981V22.744H109.629C108.909 22.744 108.341 22.872 107.925 23.128C107.525 23.384 107.325 23.72 107.325 24.136C107.325 24.536 107.485 24.856 107.805 25.096C108.141 25.336 108.565 25.456 109.077 25.456C109.573 25.456 110.029 25.344 110.445 25.12C110.861 24.896 111.197 24.592 111.453 24.208C111.725 23.824 111.885 23.392 111.933 22.912L112.965 23.344C112.965 24.352 112.757 25.24 112.341 26.008C111.941 26.76 111.365 27.344 110.613 27.76C109.877 28.176 109.013 28.384 108.021 28.384ZM121.968 28H117.912V10.72H121.968V28ZM128.633 28H124.577V10.72H128.633V28ZM137.819 28.384C136.443 28.384 135.227 28.112 134.171 27.568C133.131 27.008 132.315 26.24 131.723 25.264C131.147 24.272 130.859 23.144 130.859 21.88C130.859 20.6 131.147 19.472 131.723 18.496C132.315 17.52 133.131 16.76 134.171 16.216C135.227 15.656 136.443 15.376 137.819 15.376C139.195 15.376 140.403 15.656 141.443 16.216C142.499 16.76 143.315 17.52 143.891 18.496C144.483 19.472 144.779 20.6 144.779 21.88C144.779 23.144 144.483 24.272 143.891 25.264C143.315 26.24 142.499 27.008 141.443 27.568C140.403 28.112 139.195 28.384 137.819 28.384ZM137.819 25.072C138.379 25.072 138.867 24.936 139.283 24.664C139.699 24.392 140.019 24.016 140.243 23.536C140.483 23.056 140.603 22.504 140.603 21.88C140.603 21.256 140.483 20.704 140.243 20.224C140.019 19.744 139.699 19.368 139.283 19.096C138.867 18.824 138.379 18.688 137.819 18.688C137.275 18.688 136.787 18.824 136.355 19.096C135.939 19.368 135.611 19.744 135.371 20.224C135.147 20.704 135.035 21.256 135.035 21.88C135.035 22.504 135.147 23.056 135.371 23.536C135.611 24.016 135.939 24.392 136.355 24.664C136.787 24.936 137.275 25.072 137.819 25.072ZM153.578 28.384C152.202 28.384 150.986 28.112 149.93 27.568C148.89 27.008 148.074 26.24 147.482 25.264C146.906 24.272 146.618 23.144 146.618 21.88C146.618 20.6 146.906 19.472 147.482 18.496C148.074 17.52 148.89 16.76 149.93 16.216C150.986 15.656 152.202 15.376 153.578 15.376C154.954 15.376 156.162 15.656 157.202 16.216C158.258 16.76 159.074 17.52 159.65 18.496C160.242 19.472 160.538 20.6 160.538 21.88C160.538 23.144 160.242 24.272 159.65 25.264C159.074 26.24 158.258 27.008 157.202 27.568C156.162 28.112 154.954 28.384 153.578 28.384ZM153.578 25.072C154.138 25.072 154.626 24.936 155.042 24.664C155.458 24.392 155.778 24.016 156.002 23.536C156.242 23.056 156.362 22.504 156.362 21.88C156.362 21.256 156.242 20.704 156.002 20.224C155.778 19.744 155.458 19.368 155.042 19.096C154.626 18.824 154.138 18.688 153.578 18.688C153.034 18.688 152.546 18.824 152.114 19.096C151.698 19.368 151.37 19.744 151.13 20.224C150.906 20.704 150.794 21.256 150.794 21.88C150.794 22.504 150.906 23.056 151.13 23.536C151.37 24.016 151.698 24.392 152.114 24.664C152.546 24.936 153.034 25.072 153.578 25.072ZM166.817 32.656H162.761V15.76H166.793V19.624H165.953C166.049 18.824 166.289 18.104 166.673 17.464C167.057 16.824 167.577 16.32 168.233 15.952C168.889 15.568 169.665 15.376 170.561 15.376C171.649 15.376 172.649 15.648 173.561 16.192C174.489 16.736 175.225 17.496 175.769 18.472C176.329 19.432 176.609 20.568 176.609 21.88C176.609 23.176 176.329 24.312 175.769 25.288C175.225 26.264 174.497 27.024 173.585 27.568C172.673 28.112 171.673 28.384 170.585 28.384C169.545 28.384 168.665 28.16 167.945 27.712C167.241 27.264 166.705 26.664 166.337 25.912C165.969 25.144 165.785 24.304 165.785 23.392L166.697 23.008C166.777 23.424 166.945 23.792 167.201 24.112C167.473 24.416 167.801 24.656 168.185 24.832C168.585 24.992 169.009 25.072 169.457 25.072C170.065 25.072 170.585 24.936 171.017 24.664C171.465 24.392 171.809 24.016 172.049 23.536C172.305 23.04 172.433 22.488 172.433 21.88C172.433 21.256 172.313 20.704 172.073 20.224C171.849 19.744 171.529 19.368 171.113 19.096C170.697 18.824 170.193 18.688 169.601 18.688C169.057 18.688 168.577 18.816 168.161 19.072C167.745 19.312 167.417 19.664 167.177 20.128C166.937 20.576 166.817 21.128 166.817 21.784V32.656Z" fill="#224229"/>
</svg>
